<?xml version="1.0" standalone="no"?>
<!DOCTYPE svg PUBLIC "-//W3C//DTD SVG 20010904//EN"
 "http://www.w3.org/TR/2001/REC-SVG-20010904/DTD/svg10.dtd">
<svg version="1.0" xmlns="http://www.w3.org/2000/svg"
 width="2048.000000pt" height="2048.000000pt" viewBox="0 0 2048.000000 2048.000000"
 preserveAspectRatio="xMidYMid meet">
<metadata>
Created by potrace 1.14, written by Peter Selinger 2001-2017
</metadata>
<g transform="translate(0.000000,2048.000000) scale(0.100000,-0.100000)"
fill="#000000" stroke="none">
<path d="M5985 17550 l-1130 -5 -370 -141 c-203 -77 -404 -153 -446 -168 -43
-15 -85 -33 -94 -40 -15 -11 -17 -53 -15 -511 0 -275 3 -509 5 -520 4 -17 -76
-75 -507 -365 -282 -190 -525 -356 -540 -368 l-28 -24 0 -5893 0 -5892 24 -96
c73 -288 282 -503 567 -584 62 -17 306 -18 6779 -18 l6715 0 89 23 c173 44
330 137 421 250 57 71 118 194 147 298 l23 79 3 5922 2 5923 -42 31 c-24 17
-262 178 -530 357 l-487 327 -1 520 c0 578 3 553 -68 576 -20 6 -208 74 -416
151 -209 76 -416 148 -460 159 -80 19 -159 19 -4296 17 -2318 -2 -4723 -5
-5345 -8z"/>
</g>
</svg>
